<?xml version="1.0" encoding="UTF-8" standalone="yes"?>
<svg version="1.2" width="200" height="200" viewBox="0 0 200 200" baseProfile="tiny-ps" xmlns="http://www.w3.org/2000/svg">
  <title>bimi-svg-tiny-12-ps</title>
  <defs id="defs1"/>
  <g id="g1">
    <g id="g1956" transform="translate(0.21370479,0.19285775)">
      <path d="M 0,100 C 0,66.666667 0,33.333333 0,0 c 66.666667,0 133.33333,0 200,0 0,66.666667 0,133.33333 0,200 -66.66667,0 -133.333333,0 -200,0 0,-33.33333 0,-66.66667 0,-100 z" id="path1967" fill="#f0eced"/>
      <path d="M 77.734375,198.44063 C 40.785298,190.63418 10.376939,159.88678 2.3786122,123.0705 -8.0334612,80.575901 12.795131,32.457319 51.786286,12.08878 86.99205,-7.576017 133.83793,-3.0890693 164.36487,23.358123 c 20.13188,16.962608 35.48537,41.741039 35.43006,68.707176 1.57863,19.317831 -1.59581,39.198861 -11.53845,56.054591 -17.8635,31.96215 -53.92154,53.95534 -90.906924,51.91416 -6.55455,-0.1132 -13.170862,-0.28618 -19.615181,-1.59342 z" id="path1966" fill="#fde800"/>
      <path d="M 77.734375,198.44063 C 40.785298,190.63418 10.376939,159.88678 2.3786122,123.0705 -8.0334612,80.575901 12.795131,32.457319 51.786286,12.08878 86.99205,-7.576017 133.83793,-3.0890693 164.36487,23.358123 c 20.13188,16.962608 35.48537,41.741039 35.43006,68.707176 1.57863,19.317831 -1.59581,39.198861 -11.53845,56.054591 -17.8635,31.96215 -53.92154,53.95534 -90.906924,51.91416 -6.55455,-0.1132 -13.170862,-0.28618 -19.615181,-1.59342 z m 49.469055,-36.52657 c -5.84884,-7.46704 -15.61423,-8.05719 -24.48324,-8.11091 -4.721736,0.5865 -15.867026,-1.76445 -16.757712,2.45527 12.822322,5.10827 27.053172,6.66241 40.766022,6.75214 l 0.46753,-0.39744 z m 1.34784,-51.56288 c 11.32331,-14.140237 15.13282,-32.49723 18.25572,-49.883174 -0.23959,-3.865912 1.43722,-9.816307 0.13542,-12.811756 -27.62663,0 -55.253272,0 -82.87991,0 -1.156378,5.798282 2.544113,6.526792 6.67385,7.068065 1.792893,4.215516 9.057542,12.653644 13.15141,9.076943 11.011276,-10.61576 32.61538,-7.797503 38.02902,7.335512 4.44843,10.891381 -1.73174,22.327454 -10.1935,29.20824 1.28362,4.23217 9.96285,8.00521 12.61975,13.17597 1.9493,0.87032 2.95853,-2.37099 4.20824,-3.1698 z M 41.169925,79.492365 c -0.904192,-6.810752 -2.377868,-13.763613 4.489043,-16.892892 -1.008536,-1.779571 -9.110975,-0.981794 -11.824279,0.09968 0.03051,8.3843 3.844912,16.673905 7.716039,24.019772 0.07046,-2.415792 -0.199528,-4.821803 -0.380803,-7.226563 z m 122.072995,1.833564 c 2.7818,-6.33212 10.63623,-24.042799 -3.21528,-19.897431 -9.69614,1.69469 8.05572,5.860274 1.41568,12.373031 -0.44379,4.844311 -3.76529,19.353965 1.7996,7.5244 z" id="path1965" fill="#fad700"/>
      <path d="M 77.734375,198.44063 C 40.785298,190.63418 10.376939,159.88678 2.3786122,123.0705 -8.0334612,80.575901 12.795131,32.457319 51.786286,12.08878 86.99205,-7.576017 133.83793,-3.0890693 164.36487,23.358123 c 20.13188,16.962608 35.48537,41.741039 35.43006,68.707176 1.57863,19.317831 -1.59581,39.198861 -11.53845,56.054591 -17.8635,31.96215 -53.92154,53.95534 -90.906924,51.91416 -6.55455,-0.1132 -13.170862,-0.28618 -19.615181,-1.59342 z M 128.125,162.75683 c -2.90778,-3.75785 -7.51324,-9.02033 -12.77908,-9.19184 -10.48689,-0.35487 -21.198141,-1.70446 -31.495378,0.8204 -1.472031,6.07333 14.54482,6.13192 19.997658,7.88802 7.78619,0.54743 17.02116,3.5205 24.2768,0.48342 z m -16.78308,-13.73339 c -4.38338,-10.93626 2.3659,-21.86746 10.26522,-29.09446 8.05736,-8.28137 15.75251,-17.43364 18.28911,-29.026394 2.75447,-10.622145 7.22129,-21.098706 7.83805,-31.988075 -1.50118,-3.062291 2.38947,-11.567623 -1.71522,-12.039027 -27.80033,0.172043 -55.630559,-0.452984 -83.405989,0.694336 -1.260087,11.636846 0.507608,23.696336 3.202997,35.081867 3.628281,13.936596 10.190327,27.273013 20.576204,37.426713 8.244586,6.75069 4.104744,20.26776 12.285533,26.3592 2.660715,0.63046 12.637875,7.05628 12.664095,2.58584 z M 95.72494,128.69369 c -9.332411,-8.07518 6.4095,-20.28664 12.25401,-9.60092 5.02186,7.26324 -6.58735,16.72506 -12.25401,9.60092 z M 93.739573,109.75306 C 89.899621,99.188737 100.85114,91.273651 107.12096,84.466799 114.35098,75.285828 97.894772,65.165858 93.726643,76.376865 94.158716,87.570404 72.186983,83.998194 79.996335,72.66909 85.331544,54.815537 114.87485,52.997161 121.31484,70.944908 c 4.40545,10.011913 -1.35471,20.678026 -8.97126,27.248314 -5.55132,4.823708 -3.41296,16.457178 -14.216387,12.683648 -1.452361,-0.25 -3.157481,-0.14376 -4.38762,-1.12381 z M 44.217793,88.867187 c 0.274916,-7.021762 -8.302032,-21.054401 1.546142,-22.944674 5.576094,-7.194444 -6.529512,-4.537979 -10.734422,-4.985013 -5.426622,-0.317692 0.06208,9.327474 -0.05125,12.577094 0.993542,3.317066 6.938928,19.813141 9.239531,15.352593 z M 162.81882,83.587136 c 3.91029,-6.919455 5.61533,-14.785046 6.14695,-22.649636 -5.41047,0.01409 -10.82093,0.02819 -16.2314,0.04228 5.25609,4.14992 11.52386,8.116064 7.14999,15.553541 -0.0953,3.993913 -5.72717,19.538505 0.96497,10.150587 l 1.03513,-1.521473 0.93436,-1.575296 z" id="path1964" fill="#efa403"/>
      <path d="M 77.734375,198.44063 C 40.785298,190.63418 10.376939,159.88678 2.3786122,123.0705 -8.0334612,80.575901 12.795131,32.457319 51.786286,12.08878 86.99205,-7.576017 133.83793,-3.0890693 164.36487,23.358123 c 20.13188,16.962608 35.48537,41.741039 35.43006,68.707176 1.57863,19.317831 -1.59581,39.198861 -11.53845,56.054591 -17.8635,31.96215 -53.92154,53.95534 -90.906924,51.91416 -6.55455,-0.1132 -13.170862,-0.28618 -19.615181,-1.59342 z m 49.936105,-33.28984 c 4.39528,-9.7892 -13.29608,-9.15086 -15.09979,-17.18537 -5.00417,-10.42982 2.67277,-20.58471 9.98702,-27.43653 6.09658,-10.30267 17.53248,-13.11151 26.62041,-19.75677 11.60615,-9.340114 19.77002,-23.45427 20.71641,-38.44239 -3.36151,-5.517655 -12.05692,-2.00752 -17.91914,-2.649608 -4.96726,1.652234 -2.64149,-4.189391 -3.14727,-7.121488 0.42165,-3.95494 0.47484,-7.542971 -4.53089,-6.093341 -30.35438,-0.127837 -60.708759,-0.255675 -91.063138,-0.383512 -1.335739,6.357657 2.1441,16.45724 -8.567177,13.44411 -7.105653,-1.431809 -17.305157,4.92e-4 -12.093068,9.551996 3.098445,17.159015 15.251924,31.781573 31.28478,38.466053 9.99949,4.4251 15.543521,14.72568 23.378893,21.98943 4.382568,7.61718 4.364064,22.35833 -5.827833,25.00209 -3.713274,2.12283 -14.501981,11.70236 -4.222699,10.3273 16.823227,-0.0171 33.703612,0.70543 50.483492,0.28803 z m -31.143375,-37.2211 c -10.574375,-9.86682 14.487885,-17.71571 10.983355,-2.83162 -1.28248,4.60988 -7.604715,6.12547 -10.983355,2.83162 z M 94.53125,105.44366 C 93.10846,93.286212 109.78595,90.235886 109.88837,78.778382 109.65733,66.852935 90.970051,68.574075 91.675771,80.065026 84.888389,84.30804 75.649365,79.799559 81.71189,71.382085 c 6.030603,-16.877735 33.93301,-15.912641 38.83092,1.285016 4.36561,11.356742 -4.1853,20.630241 -11.69472,27.890339 -2.95572,3.99404 -0.96106,11.01588 -7.8728,8.81756 -3.032761,-0.24798 -8.042149,1.48066 -6.44404,-3.3982 z M 57.311227,94.678938 C 49.359724,88.605789 44.01799,79.391685 41.937488,69.698539 c 6.359443,-6.437063 15.963204,-0.545627 14.644444,8.383014 -0.336919,5.609011 7.423101,15.595469 3.7039,18.643031 l -1.285563,-0.782602 z m 81.751663,1.610124 c 3.4106,-9.367102 5.83846,-19.045913 8.25108,-28.710937 4.2115,0.499844 14.49981,-3.028816 12.47689,4.135951 -3.15184,10.382202 -10.01727,20.077153 -19.8045,25.037971 l -0.68101,-0.0039 z" id="path1963" fill="#08c1ad"/>
      <path d="M 77.734375,198.44063 C 40.785298,190.63418 10.376939,159.88678 2.3786122,123.0705 -7.7693817,81.625465 11.747288,34.706475 49.116544,13.717887 81.168656,-5.2868776 124.13776,-5.1067636 154.94717,16.458765 c 22.83041,14.250704 40.10526,37.996086 43.54322,65.01538 3.41408,25.508855 0.92791,53.403085 -15.10409,74.541605 -15.83591,22.29461 -40.54337,38.98214 -67.70442,43.39649 -3.025,0.63982 -13.27205,0.53933 -12.60319,0.20583 4.16826,-0.10199 6.39842,-1.28564 6.13393,-1.85543 20.35551,-2.26206 39.8236,-10.93419 55.07243,-24.65269 7.42089,-5.80599 14.53489,-13.42763 13.54819,-23.28221 -6.91519,-7.30402 1.90921,-14.42733 4.5149,-22.35566 2.54148,-4.8602 2.98384,-10.71536 0.0919,-2.28091 -11.01108,24.53873 -32.00564,44.29511 -56.44272,55.23327 -27.278009,11.64204 -59.28198,10.26325 -85.945387,-2.45128 -0.462854,1.67164 12.117215,8.72054 17.185365,11.0081 10.729088,4.58488 22.062369,8.33047 33.790532,8.95652 -8.031518,1.40321 9.91845,1.63547 4.538747,1.81018 -5.972308,0.14497 -11.979132,0.0334 -17.832242,-1.30733 z m 49.936105,-33.28984 c 4.39528,-9.7892 -13.29608,-9.15086 -15.09979,-17.18537 -5.00417,-10.42982 2.67277,-20.58471 9.98702,-27.43653 6.09658,-10.30267 17.53248,-13.11151 26.62041,-19.75677 11.60615,-9.340114 19.77002,-23.45427 20.71641,-38.44239 -3.36151,-5.517655 -12.05692,-2.00752 -17.91914,-2.649608 -4.96726,1.652234 -2.64149,-4.189391 -3.14727,-7.121488 0.42165,-3.95494 0.47484,-7.542971 -4.53089,-6.093341 -30.35438,-0.127837 -60.708759,-0.255675 -91.063138,-0.383512 -1.335739,6.357657 2.1441,16.45724 -8.567177,13.44411 -7.105653,-1.431809 -17.305157,4.92e-4 -12.093068,9.551996 3.098445,17.159015 15.251924,31.781573 31.28478,38.466053 9.99949,4.4251 15.543521,14.72568 23.378893,21.98943 4.382568,7.61718 4.364064,22.35833 -5.827833,25.00209 -3.713274,2.12283 -14.501981,11.70236 -4.222699,10.3273 16.823227,-0.0171 33.703612,0.70543 50.483492,0.28803 z m -31.143375,-37.2211 c -10.574375,-9.86682 14.487885,-17.71571 10.983355,-2.83162 -1.28248,4.60988 -7.604715,6.12547 -10.983355,2.83162 z M 94.53125,105.44366 C 93.10846,93.286212 109.78595,90.235886 109.88837,78.778382 109.65733,66.852935 90.970051,68.574075 91.675771,80.065026 84.888389,84.30804 75.649365,79.799559 81.71189,71.382085 c 6.030603,-16.877735 33.93301,-15.912641 38.83092,1.285016 4.36561,11.356742 -4.1853,20.630241 -11.69472,27.890339 -2.95572,3.99404 -0.96106,11.01588 -7.8728,8.81756 -3.032761,-0.24798 -8.042149,1.48066 -6.44404,-3.3982 z M 57.311227,94.678938 C 49.359724,88.605789 44.01799,79.391685 41.937488,69.698539 c 6.359443,-6.437063 15.963204,-0.545627 14.644444,8.383014 -0.336919,5.609011 7.423101,15.595469 3.7039,18.643031 l -1.285563,-0.782602 z m 81.751663,1.610124 c 3.4106,-9.367102 5.83846,-19.045913 8.25108,-28.710937 4.2115,0.499844 14.49981,-3.028816 12.47689,4.135951 -3.15184,10.382202 -10.01727,20.077153 -19.8045,25.037971 l -0.68101,-0.0039 z" id="path1962" fill="#e3206a"/>
      <path d="m 77.734375,198.44063 c -25.624491,-5.50488 -48.424459,-22.23918 -62.428957,-44.113 6.106472,4.22725 -2.959581,-11.05903 -2.074602,-14.76644 -7.9325157,-34.89754 3.52587,-73.60512 30.006707,-97.872337 10.418056,-11.23724 23.371904,-20.070515 38.18582,-24.331976 26.771987,-8.7390883 56.838797,-5.530591 81.493317,7.939866 7.53805,4.517813 -3.62734,-6.451721 3.0852,-0.542203 18.34992,15.006376 31.40591,36.842028 33.08026,60.767608 2.38268,24.324882 -0.43254,50.486422 -15.69582,70.493602 -15.83591,22.29461 -40.54337,38.98214 -67.70442,43.39649 -3.025,0.63982 -13.27205,0.53933 -12.60319,0.20583 4.16826,-0.10199 6.39842,-1.28564 6.13393,-1.85543 20.35551,-2.26206 39.8236,-10.93419 55.07243,-24.65269 7.42089,-5.80599 14.53489,-13.42763 13.54819,-23.28221 -6.91519,-7.30402 1.90921,-14.42733 4.5149,-22.35566 2.54148,-4.8602 2.98384,-10.71536 0.0919,-2.28091 -11.01108,24.53873 -32.00564,44.29511 -56.44272,55.23327 -27.278009,11.64204 -59.28198,10.26325 -85.945387,-2.45128 -0.462854,1.67164 12.117215,8.72054 17.185365,11.0081 10.729088,4.58488 22.062369,8.33047 33.790532,8.95652 -8.031518,1.40321 9.91845,1.63547 4.538747,1.81018 -5.972308,0.14497 -11.979132,0.0334 -17.832242,-1.30733 z m 49.936105,-33.28984 c 4.39528,-9.7892 -13.29608,-9.15086 -15.09979,-17.18537 -5.00417,-10.42982 2.67277,-20.58471 9.98702,-27.43653 6.09658,-10.30267 17.53248,-13.11151 26.62041,-19.75677 11.60615,-9.340114 19.77002,-23.45427 20.71641,-38.44239 -3.36151,-5.517655 -12.05692,-2.00752 -17.91914,-2.649608 -4.96726,1.652234 -2.64149,-4.189391 -3.14727,-7.121488 0.42163,-3.952342 0.47482,-7.540045 -4.53069,-6.121255 -28.70137,-0.104524 -57.413166,-1.052904 -86.106362,-0.48406 -8.766468,-1.29028 -6.321942,7.585915 -6.237943,13.031056 -6.784367,0.505543 -13.907364,-0.609201 -20.409634,1.384863 -0.567163,9.758831 3.962544,20.126905 9.052079,28.538543 7.040775,10.686108 18.61708,17.362879 30.01707,22.188069 5.32841,9.63509 18.085582,14.83747 19.148176,26.59767 2.207095,10.63614 -6.30422,16.90706 -14.538323,21.10025 -8.146772,9.61457 11.191004,5.68192 16.824428,6.77285 11.863999,0.0667 23.800819,0.63635 35.623559,-0.41583 z m -31.143375,-37.2211 c -10.574375,-9.86682 14.487885,-17.71571 10.983355,-2.83162 -1.28248,4.60988 -7.604715,6.12547 -10.983355,2.83162 z M 94.53125,105.44366 C 93.10846,93.286212 109.78595,90.235886 109.88837,78.778382 109.65733,66.852935 90.970051,68.574075 91.675771,80.065026 84.888389,84.30804 75.649365,79.799559 81.71189,71.382085 c 6.030603,-16.877735 33.93301,-15.912641 38.83092,1.285016 4.36561,11.356742 -4.1853,20.630241 -11.69472,27.890339 -2.95572,3.99404 -0.96106,11.01588 -7.8728,8.81756 -3.032761,-0.24798 -8.042149,1.48066 -6.44404,-3.3982 z M 57.105939,93.945312 C 50.471658,86.914369 44.318635,78.535072 41.831672,69.117629 c 2.670363,-0.505054 11.610198,-2.885268 12.681849,0.926977 0.813431,9.11578 4.611168,17.577155 7.170138,26.220445 -1.027874,1.760645 -3.580122,-2.104251 -4.57772,-2.319739 z m 81.956951,2.34375 c 3.4106,-9.367102 5.83846,-19.045913 8.25108,-28.710937 4.2115,0.499844 14.49981,-3.028816 12.47689,4.135951 -3.15184,10.382202 -10.01727,20.077153 -19.8045,25.037971 l -0.68101,-0.0039 z" id="path1961" fill="#0bb5a8"/>
      <path d="m 110.54688,199.18281 c 4.99469,-1.06881 12.35014,-0.56554 3.44726,0.45363 -2.53864,0.0759 -11.96988,0.60234 -3.44726,-0.45363 z M 69.921875,186.36037 C 53.486024,183.19794 36.804546,177.34812 23.98277,166.27704 21.860722,163.70087 12.891654,153.58387 17.788687,155.41304 4.3724508,120.47825 10.441014,78.242092 35.421868,49.95556 47.06054,37.049081 60.01637,24.313268 76.979334,18.889808 104.79916,8.3646559 136.89526,11.033615 162.91666,25.296743 c 7.19255,4.107264 -3.11912,-6.085785 3.25194,-0.412704 16.55561,12.162528 23.17218,33.236268 23.99638,52.988595 0.34616,29.784066 -10.49972,60.545106 -33.14722,80.624436 -22.85325,21.85424 -55.69638,33.08952 -87.095885,27.8633 z m 57.748605,-21.20958 c 3.61492,-7.11143 -6.53942,-10.8511 -11.33338,-12.37721 -7.99591,-6.26028 -6.23508,-19.51301 0.68723,-26.11257 7.71712,-8.78116 14.82056,-18.40912 26.46172,-21.96438 14.74409,-8.891856 25.2514,-25.092347 26.40848,-42.3669 -3.36151,-5.517655 -12.05692,-2.00752 -17.91914,-2.649608 -4.96726,1.652234 -2.64149,-4.189391 -3.14727,-7.121488 0.42163,-3.952342 0.47482,-7.540045 -4.53069,-6.121255 -28.70137,-0.104524 -57.413166,-1.052904 -86.106362,-0.48406 -8.766468,-1.29028 -6.321942,7.585915 -6.237943,13.031056 -6.784367,0.505543 -13.907364,-0.609201 -20.409634,1.384863 -0.567163,9.758831 3.962544,20.126905 9.052079,28.538543 7.040775,10.686108 18.61708,17.362879 30.01707,22.188069 5.32841,9.63509 18.085582,14.83747 19.148176,26.59767 2.207095,10.63614 -6.30422,16.90706 -14.538323,21.10025 -8.146772,9.61457 11.191004,5.68192 16.824428,6.77285 11.863999,0.0667 23.800819,0.63635 35.623559,-0.41583 z m -31.143375,-37.2211 c -10.574375,-9.86682 14.487885,-17.71571 10.983355,-2.83162 -1.28248,4.60988 -7.604715,6.12547 -10.983355,2.83162 z M 94.53125,105.44366 C 93.10846,93.286212 109.78595,90.235886 109.88837,78.778382 109.65733,66.852935 90.970051,68.574075 91.675771,80.065026 84.888389,84.30804 75.649365,79.799559 81.71189,71.382085 c 6.030603,-16.877735 33.93301,-15.912641 38.83092,1.285016 4.36561,11.356742 -4.1853,20.630241 -11.69472,27.890339 -2.95572,3.99404 -0.96106,11.01588 -7.8728,8.81756 -3.032761,-0.24798 -8.042149,1.48066 -6.44404,-3.3982 z M 57.105939,93.945312 C 50.471658,86.914369 44.318635,78.535072 41.831672,69.117629 c 2.670363,-0.505054 11.610198,-2.885268 12.681849,0.926977 0.813431,9.11578 4.611168,17.577155 7.170138,26.220445 -1.027874,1.760645 -3.580122,-2.104251 -4.57772,-2.319739 z m 81.956951,2.34375 c 3.4106,-9.367102 5.83846,-19.045913 8.25108,-28.710937 4.2115,0.499844 14.49981,-3.028816 12.47689,4.135951 -3.15184,10.382202 -10.01727,20.077153 -19.8045,25.037971 l -0.68101,-0.0039 z m 59.90764,17.382818 c 0.009,-4.93937 1.51496,-8.77117 0.85332,-1.47586 -0.10928,3.42495 -1.59676,9.34585 -0.85332,1.47586 z m -0.0285,-28.01921 c -0.73286,-4.423997 0.094,-8.956529 0.6736,-1.785576 0.88468,5.020097 -0.20216,9.088279 -0.6736,1.785576 z" id="path1960" fill="#a41da1"/>
      <path d="M 69.921875,186.36037 C 51.074282,183.10241 30.248624,176.11623 19.990117,158.79493 7.3454652,128.99512 8.1299859,92.584526 25.555195,64.812448 c 0.412447,5.189721 -4.064512,14.360188 -3.960588,21.310284 -2.064145,23.439608 5.452541,48.655378 23.096837,64.803068 7.751923,-2.49868 17.071832,-1.56318 25.471123,-1.02797 8.53279,4.45017 19.795402,0.85341 17.094531,-10.5063 C 82.268455,131.05696 74.825685,123.90412 69.352045,115.96512 62.157682,113.9775 53.056839,108.13051 52.182148,104.4939 45.505004,102.71777 40.680918,90.849003 35.762276,84.387452 33.494356,79.718663 31.154433,71.057484 31.784368,67.902664 c 3.416254,15.365504 12.503529,29.780421 26.737493,37.168266 10.617211,3.46481 16.692127,11.64179 24.053104,19.56219 8.30332,6.26769 10.012007,19.91456 3.00986,27.61317 -4.181898,2.69998 -16.318294,8.07118 -11.405256,12.99752 17.597177,-0.0783 35.238791,0.86729 52.801701,-0.1934 5.91145,-4.80947 -5.33887,-9.92961 -8.4547,-11.92541 -10.00355,-2.80403 -9.0886,-18.46666 -2.71691,-24.93869 7.92671,-8.49741 14.3695,-19.31031 26.18688,-22.64511 15.55595,-8.648496 26.68787,-25.376362 27.89799,-43.21147 -3.36151,-5.517655 -12.05692,-2.00752 -17.91914,-2.649608 -4.96726,1.652234 -2.64149,-4.189391 -3.14727,-7.121488 0.42164,-3.954149 0.47483,-7.54208 -4.53085,-6.101843 C 120.28672,46.310613 96.276174,46.164435 72.265625,46.018258 69.060805,40.351971 67.23688,33.598769 62.678762,28.927739 52.225809,31.810527 63.26572,25.091508 67.048721,22.951024 89.013733,12.454127 114.76305,10.937033 138.38984,15.894331 c 13.82231,4.087279 28.32959,9.364602 38.4442,20.062573 10.5711,13.754379 12.94643,32.060885 13.02691,48.943979 -0.26698,28.335867 -12.74256,56.232547 -34.20537,74.855377 -22.78026,21.05999 -54.93905,31.70924 -85.733705,26.60411 z m 26.60523,-58.43068 c -10.574375,-9.86682 14.487885,-17.71571 10.983355,-2.83162 -1.28248,4.60988 -7.604715,6.12547 -10.983355,2.83162 z M 94.53125,105.44366 C 93.10846,93.286212 109.78595,90.235886 109.88837,78.778382 109.65733,66.852935 90.970051,68.574075 91.675771,80.065026 84.888389,84.30804 75.649365,79.799559 81.71189,71.382085 c 6.030603,-16.877735 33.93301,-15.912641 38.83092,1.285016 4.36561,11.356742 -4.1853,20.630241 -11.69472,27.890339 -2.95572,3.99404 -0.96106,11.01588 -7.8728,8.81756 -3.032761,-0.24798 -8.042149,1.48066 -6.44404,-3.3982 z M 58.59375,95.300877 c -1.166917,-3.624891 -2.183676,-13.701473 -2.436993,-16.310571 -0.07316,4.796994 7.971554,16.409828 3.593271,17.163367 z m 80.46914,0.988185 c 3.4106,-9.367102 5.83846,-19.045913 8.25108,-28.710937 4.2115,0.499844 14.49981,-3.028816 12.47689,4.135951 -3.15184,10.382202 -10.01727,20.077153 -19.8045,25.037971 l -0.68101,-0.0039 z M 42.345411,71.54215 c -2.34449,-5.421901 10.533957,-4.082314 12.059427,-2.055199 1.108562,8.893135 -3.770715,-5.979603 -9.142115,0.154018 -2.92362,0.485389 -0.814227,7.216531 -2.917312,1.901181 z" id="path1959" fill="#066cae"/>
      <path d="M 68.359375,185.51764 C 52.97849,182.17436 37.290334,176.8802 25.080905,166.62927 16.132876,155.41255 13.614488,140.48634 11.628693,126.61775 10.03396,105.34751 14.363233,83.111886 25.555195,64.812448 c 0.412447,5.189721 -4.064512,14.360188 -3.960588,21.310284 -2.064145,23.439608 5.452541,48.655378 23.096837,64.803068 7.751923,-2.49868 17.071832,-1.56318 25.471123,-1.02797 8.53279,4.45017 19.795402,0.85341 17.094531,-10.5063 C 82.268455,131.05696 74.825685,123.90412 69.352045,115.96512 62.157682,113.9775 53.056839,108.13051 52.182148,104.4939 45.505004,102.71777 40.680918,90.849003 35.762276,84.387452 33.494356,79.718663 31.154433,71.057484 31.784368,67.902664 c 3.416254,15.365504 12.503529,29.780421 26.737493,37.168266 10.617211,3.46481 16.692127,11.64179 24.053104,19.56219 8.30332,6.26769 10.012007,19.91456 3.00986,27.61317 -4.181898,2.69998 -16.318294,8.07118 -11.405256,12.99752 17.613745,-0.0983 35.280891,0.91362 52.853471,-0.22527 4.94759,-6.3139 0.57507,10.68019 5.70909,10.28769 -19.34125,11.22187 -42.596333,12.8817 -64.382755,10.21141 z m 46.160605,-33.88126 c -8.16578,-9.39754 -0.8676,-22.37573 6.69846,-29.64701 6.38398,-10.06072 16.76456,-14.42971 26.57942,-20.15774 12.37131,-9.301818 21.09821,-23.936177 22.09667,-39.5019 -3.36151,-5.517655 -12.05692,-2.00752 -17.91914,-2.649608 -4.96726,1.652234 -2.64149,-4.189391 -3.14727,-7.121488 0.42164,-3.954149 0.47483,-7.54208 -4.53085,-6.101843 C 120.28672,46.310613 96.276174,46.164435 72.265625,46.018258 69.060805,40.351971 67.23688,33.598769 62.678762,28.927739 50.65688,32.044519 67.26961,22.499851 70.910946,21.130488 100.07464,9.5625366 134.72086,9.9591596 162.43775,25.428969 c 8.47066,4.679117 17.78667,10.625645 19.79584,20.85899 12.23676,29.883236 7.47011,65.470501 -9.77255,92.374961 2.09695,-8.76066 5.48841,-18.11445 5.33006,-27.58028 0.32973,-11.504806 -1.24115,-23.144168 -4.98841,-34.036061 -4.40604,1.26876 -6.55564,15.158924 -12.58786,19.533867 -5.66053,9.472984 -16.52022,10.741694 -25.83912,14.720304 -7.64569,6.70543 -16.18985,14.01975 -20.33629,23.57982 -4.26505,6.09426 4.97268,14.82643 2.43062,18.41509 l -0.87358,-0.60294 -1.07652,-1.05634 z M 96.527105,127.92969 c -10.574375,-9.86682 14.487885,-17.71571 10.983355,-2.83162 -1.28248,4.60988 -7.604715,6.12547 -10.983355,2.83162 z M 94.53125,105.44366 C 93.10846,93.286212 109.78595,90.235886 109.88837,78.778382 109.65733,66.852935 90.970051,68.574075 91.675771,80.065026 84.888389,84.30804 75.649365,79.799559 81.71189,71.382085 c 6.030603,-16.877735 33.93301,-15.912641 38.83092,1.285016 4.36561,11.356742 -4.1853,20.630241 -11.69472,27.890339 -2.95572,3.99404 -0.96106,11.01588 -7.8728,8.81756 -3.032761,-0.24798 -8.042149,1.48066 -6.44404,-3.3982 z M 58.59375,95.300877 c -1.166917,-3.624891 -2.183676,-13.701473 -2.436993,-16.310571 -0.07316,4.796994 7.971554,16.409828 3.593271,17.163367 z m 80.46914,0.988185 c 3.4106,-9.367102 5.83846,-19.045913 8.25108,-28.710937 4.2115,0.499844 14.49981,-3.028816 12.47689,4.135951 -3.15184,10.382202 -10.01727,20.077153 -19.8045,25.037971 l -0.68101,-0.0039 z M 149.845,87.187041 c 5.04214,-4.635352 10.93211,-15.718771 -0.31534,-12.968291 -1.29249,5.449609 -2.81119,10.862876 -4.0756,16.302769 1.90969,-0.02459 3.04581,-2.28327 4.39094,-3.334478 z M 42.345411,71.54215 c -2.34449,-5.421901 10.533957,-4.082314 12.059427,-2.055199 1.108562,8.893135 -3.770715,-5.979603 -9.142115,0.154018 -2.92362,0.485389 -0.814227,7.216531 -2.917312,1.901181 z" id="path1958" fill="#58209f"/>
      <path d="M 68.359375,185.51764 C 50.140929,181.84771 29.823701,175.25413 19.832518,158.36983 7.2676258,128.68582 8.2879746,92.455893 25.555195,64.812448 c -0.386692,7.897106 -5.631526,20.290912 -4.452067,30.206919 0.138797,38.271723 29.352835,76.055343 68.033017,81.370843 13.225645,0.87537 27.174315,1.8319 39.895705,-2.46718 3.83025,-2.49684 5.08986,3.57692 -1.11429,4.01552 -18.49328,8.79579 -39.494885,10.04894 -59.558185,7.57909 z m 4.817708,-14.16347 c -6.007952,-8.91773 0.819356,-15.35485 8.574701,-19.10319 10.80781,-4.03633 5.417528,-19.09527 -2.564455,-23.65317 -5.285223,-9.6228 -13.234272,-14.95124 -23.145676,-19.1549 -5.040817,-1.84995 -0.139349,-5.85084 -5.526786,-4.29716 C 44.640565,96.964573 36.645363,88.960698 33.578685,78.747019 32.132033,75.446274 30.21103,61.165853 33.094807,72.223757 37.330298,90.26471 52.12737,104.37861 69.362166,110.15625 c 6.072544,8.82847 16.871386,14.82407 20.182776,25.35844 2.6826,10.55485 -4.198809,18.5995 -13.192888,22.66314 -5.964301,2.48287 -3.65761,9.43966 2.358289,7.10375 16.103946,-0.0976 32.261747,0.87767 48.323727,-0.26297 4.06573,-6.26389 3.05729,8.35333 0.53402,5.74556 -17.78217,1.44911 -35.724984,1.67736 -53.545922,0.82394 z m 41.342897,-19.71779 c -8.16578,-9.39754 -0.8676,-22.37573 6.69846,-29.64701 6.38398,-10.06072 16.76456,-14.42971 26.57942,-20.15774 12.37131,-9.301818 21.09821,-23.936177 22.09667,-39.5019 -3.36151,-5.517655 -12.05692,-2.00752 -17.91914,-2.649608 -4.96726,1.652234 -2.64149,-4.189391 -3.14727,-7.121488 0.42165,-3.954495 0.47484,-7.54247 -4.53087,-6.098125 -24.13468,-0.375115 -48.359676,0.408927 -72.42225,-1.169888 24.46543,-1.668601 49.12324,0.40806 73.6265,-0.922993 4.39767,-4.111199 -10.76335,-10.114265 -15.10082,-13.061181 -22.44201,-10.803751 -49.531652,-11.676514 -72.403638,-1.692102 5.512451,-5.643357 14.387453,-8.597208 21.976087,-11.469414 26.244431,-8.7260718 55.996021,-6.736877 80.447181,6.414091 11.93793,4.621253 21.13042,15.281134 23.86009,27.783854 9.19954,28.638355 4.84107,61.273814 -11.81936,86.320044 2.09695,-8.76066 5.48841,-18.11445 5.33006,-27.58028 0.32973,-11.504806 -1.24115,-23.144168 -4.98841,-34.036061 -4.40604,1.26876 -6.55564,15.158924 -12.58786,19.533867 -5.66053,9.472984 -16.52022,10.741694 -25.83912,14.720304 -7.64569,6.70543 -16.18985,14.01975 -20.33629,23.57982 -4.26505,6.09426 4.97268,14.82643 2.43062,18.41509 l -0.87358,-0.60294 -1.07652,-1.05634 z M 96.527105,127.92969 c -10.574375,-9.86682 14.487885,-17.71571 10.983355,-2.83162 -1.28248,4.60988 -7.604715,6.12547 -10.983355,2.83162 z m 8.586535,-0.94105 C 113.43389,115.92061 89.669096,114.235 96.306673,126.46 c 1.916835,3.01463 6.485017,3.12024 8.806967,0.52864 z M 94.53125,105.44366 C 93.10846,93.286212 109.78595,90.235886 109.88837,78.778382 109.65733,66.852935 90.970051,68.574075 91.675771,80.065026 84.888389,84.30804 75.649365,79.799559 81.71189,71.382085 c 6.030603,-16.877735 33.93301,-15.912641 38.83092,1.285016 4.36561,11.356742 -4.1853,20.630241 -11.69472,27.890339 -2.95572,3.99404 -0.96106,11.01588 -7.8728,8.81756 -3.032761,-0.24798 -8.042149,1.48066 -6.44404,-3.3982 z m 11.19519,-0.75295 c 3.21118,-9.554385 16.42496,-14.464968 15.07406,-26.028968 -2.88835,-9.203277 -14.94448,-12.77351 -23.657022,-11.61638 -6.706183,-0.79972 -23.96267,13.28531 -9.612395,13.1813 5.11155,-3.455677 9.370911,-15.869565 18.577647,-9.246816 9.37622,6.842908 4.44263,20.101408 -4.07581,25.265105 -8.35997,4.815189 -6.96207,15.022269 3.00204,11.958179 0.23049,-1.17081 0.46099,-2.34161 0.69148,-3.51242 z M 58.59375,95.300877 c -1.166917,-3.624891 -2.183676,-13.701473 -2.436993,-16.310571 -0.07316,4.796994 7.971554,16.409828 3.593271,17.163367 z m 80.46914,0.988185 c 3.4106,-9.367102 5.83846,-19.045913 8.25108,-28.710937 4.2115,0.499844 14.49981,-3.028816 12.47689,4.135951 -3.15184,10.382202 -10.01727,20.077153 -19.8045,25.037971 l -0.68101,-0.0039 z M 149.845,87.187041 c 5.04214,-4.635352 10.93211,-15.718771 -0.31534,-12.968291 -1.29249,5.449609 -2.81119,10.862876 -4.0756,16.302769 1.90969,-0.02459 3.04581,-2.28327 4.39094,-3.334478 z M 42.345411,71.54215 c -2.34449,-5.421901 10.533957,-4.082314 12.059427,-2.055199 1.108562,8.893135 -3.770715,-5.979603 -9.142115,0.154018 -2.92362,0.485389 -0.814227,7.216531 -2.917312,1.901181 z" id="path1957" fill="#5a1771"/>
      <path d="m 88.28125,185.92892 c 12.43537,-0.15801 24.75894,-2.43578 36.31694,-7.06924 2.51486,0.37907 -9.42507,3.92232 -12.98363,4.90435 -12.262422,3.63021 -25.171059,2.26888 -37.786435,2.79137 4.817708,-0.20883 9.635417,-0.41765 14.453125,-0.62648 z m -33.605097,-3.78576 c -4.439321,-0.90579 -14.253651,-6.17818 -4.384358,-2.24687 3.96308,1.19302 19.316526,6.24038 7.090485,3.08927 l -1.337995,-0.40633 z m -18.348028,-8.01735 c -4.075997,-2.00505 -11.581533,-7.34151 -2.884903,-2.40421 3.905843,1.88783 16.091576,9.30896 5.676651,3.95284 L 37.7565,174.92721 Z m 79.721265,-23.03178 c -8.59022,-8.76755 -1.50651,-21.74138 5.79076,-28.8284 6.02165,-8.56881 14.54644,-13.83629 23.83064,-18.28169 14.54013,-9.129616 24.69855,-25.486389 25.17625,-42.749753 -4.53304,-4.251864 -12.14081,-1.836588 -18.12912,-2.612122 -5.00202,1.507307 -2.98026,-3.351044 -2.95921,-6.396148 2.06433,-9.653677 -8.53482,-14.568446 -15.4574,-18.860323 -19.8064,-12.181007 -44.697856,-13.203294 -66.626218,-6.77582 -8.81853,0.414174 9.473212,-6.330981 12.785409,-7.345019 31.557029,-10.5679885 68.055139,-4.348947 94.501189,15.736763 8.15458,6.868062 9.28237,18.426097 11.99966,28.118107 5.47058,25.792291 0.0308,53.625805 -14.50031,75.563295 2.09695,-8.76066 5.48841,-18.11445 5.33006,-27.58028 0.32973,-11.504806 -1.24115,-23.144168 -4.98841,-34.036061 -4.40604,1.268761 -6.55564,15.158924 -12.58786,19.533867 -5.66053,9.472984 -16.52022,10.741694 -25.83912,14.720304 -7.56059,6.55508 -15.76288,13.81437 -20.2043,23.00217 -2.02286,6.34919 0.77597,13.35655 1.87798,16.79111 z M 96.397304,100.94062 c 2.268844,-7.567303 12.695826,-14.04435 15.409146,-18.584237 -1.65631,9.366052 -11.52522,13.371841 -15.862158,21.159247 0.151004,-0.85834 0.302008,-1.71667 0.453012,-2.57501 z M 140.625,94.885969 c 2.94836,-8.416237 4.82423,-17.279694 7.50362,-25.675685 5.39117,-2.744697 15.21608,-1.741682 9.38723,6.410658 -1.43521,5.339645 -5.09739,8.521398 -1.11199,1.196311 0.96708,-4.234265 -9.23385,-3.944714 -7.8193,1.241381 -1.02983,4.300751 -5.66852,17.381861 1.8405,8.86042 3.41103,-3.064296 -7.88443,9.148651 -9.80006,7.966915 z M 81.254357,76.939168 C 81.683411,61.382289 103.41948,56.003946 114.24509,64.82424 c 4.76924,2.815581 8.6163,14.705851 1.06103,6.301793 -10.51466,-7.196486 -26.968452,-5.252363 -34.051763,5.813135 z" id="path1956" fill="#1e2991"/>
    </g>
  </g>
</svg>