<?xml version="1.0" encoding="UTF-8"?>
<svg xmlns="http://www.w3.org/2000/svg" width="512" height="512" viewBox="0 0 512 512" version="1.2" baseProfile="tiny">
  <!-- BIMI: square canvas, solid background, no external resources, no fonts/text -->
  <rect width="512" height="512" fill="#FFFFFF"/>

  <!-- Trophy logo (solid, high-contrast) -->
  <g fill="#F5C518">
    <!-- Cup body -->
    <path d="M160 176h192v48c0 66.3-53.7 120-120 120s-120-53.7-120-120v-48z"/>
    <!-- Neck -->
    <rect x="224" y="320" width="64" height="24"/>
    <!-- Base -->
    <rect x="192" y="344" width="128" height="28"/>
  </g>
  <!-- Handles -->
  <g fill="#F5C518">
    <path d="M160 192h-40c0 44 24 80 64 92v-26c-22-8-36-34-36-66z"/>
    <path d="M352 192h40c0 44-24 80-64 92v-26c22-8 36-34 36-66z"/>
  </g>

  <!-- Outline for contrast -->
  <g fill="none" stroke="#1F2937" stroke-width="6" stroke-linejoin="round" stroke-linecap="round">
    <path d="M160 176h192v48c0 66.3-53.7 120-120 120s-120-53.7-120-120v-48z"/>
    <rect x="224" y="320" width="64" height="24"/>
    <rect x="192" y="344" width="128" height="28"/>
    <path d="M160 192h-40c0 44 24 80 64 92v-26c-22-8-36-34-36-66z"/>
    <path d="M352 192h40c0 44-24 80-64 92v-26c22-8 36-34 36-66z"/>
  </g>
</svg>